<svg width="477" height="52" viewBox="0 0 477 52" fill="none" xmlns="http://www.w3.org/2000/svg">
<path d="M19.728 50.919C15.024 50.919 11.208 50.511 8.28 49.695C5.4 48.879 3.288 47.511 1.944 45.591C0.648 43.671 0 40.983 0 37.527C0 35.895 0.144 34.047 0.432 31.983C0.768 29.919 1.2 27.639 1.728 25.143C2.592 21.159 3.48 17.751 4.392 14.919C5.352 12.039 6.48 9.63896 7.776 7.71896C9.12 5.79896 10.704 4.31096 12.528 3.25496C14.352 2.15096 16.584 1.38296 19.224 0.950958C21.864 0.470959 25.008 0.230957 28.656 0.230957C30.48 0.230957 32.448 0.302959 34.56 0.44696C36.72 0.590959 38.856 0.782957 40.968 1.02296C42.661 1.21535 44.2152 1.42316 45.6306 1.64639C46.1911 1.73478 46.5584 2.27666 46.4411 2.83179L44.9749 9.76787C44.8671 10.2779 44.3857 10.6191 43.8681 10.5569C42.6591 10.4117 41.4044 10.2817 40.104 10.167C38.472 10.023 36.936 9.90296 35.496 9.80696C34.104 9.71096 32.928 9.66296 31.968 9.66296C29.328 9.66296 27.12 9.73496 25.344 9.87896C23.568 9.97496 22.104 10.287 20.952 10.815C19.8 11.295 18.816 12.111 18 13.263C17.232 14.367 16.536 15.927 15.912 17.943C15.336 19.911 14.736 22.455 14.112 25.575C13.584 27.879 13.176 29.895 12.888 31.623C12.648 33.303 12.528 34.743 12.528 35.943C12.528 37.527 12.816 38.751 13.392 39.615C13.968 40.431 14.88 40.983 16.128 41.271C17.424 41.559 19.104 41.703 21.168 41.703C21.696 41.703 22.32 41.703 23.04 41.703C23.808 41.655 24.552 41.607 25.272 41.559C25.7025 41.5051 26.1029 41.4664 26.4731 41.4428C26.9469 41.4125 27.3565 41.0811 27.452 40.6161L29.2734 31.7441C29.4007 31.1239 28.927 30.543 28.2938 30.543H23.1977C22.5608 30.543 22.0862 29.9555 22.22 29.3329L23.6623 22.6209C23.7613 22.1601 24.1686 21.831 24.6399 21.831H41.4599C42.0963 21.831 42.5708 22.4175 42.4379 23.0398L36.9334 48.8166C36.848 49.2166 36.5278 49.5248 36.1241 49.5906C34.6198 49.8355 32.9705 50.0623 31.176 50.271C29.16 50.463 27.144 50.607 25.128 50.703C23.16 50.847 21.36 50.919 19.728 50.919Z" fill="#20293A"/>
<path d="M39.6091 50.343C38.8517 50.343 38.3692 49.5336 38.7295 48.8673L64.4321 1.33133C64.6068 1.00827 64.9445 0.806957 65.3117 0.806957H80.8879C81.396 0.806957 81.8234 1.18805 81.8814 1.69288L87.3397 49.2289C87.4079 49.8225 86.9437 50.343 86.3462 50.343H76.1169C75.6098 50.343 75.183 49.9634 75.1237 49.4598L74.1795 41.4341C74.1203 40.9305 73.6935 40.551 73.1864 40.551H56.454C56.0876 40.551 55.7506 40.7512 55.5756 41.073L50.8157 49.8209C50.6406 50.1427 50.3036 50.343 49.9373 50.343H39.6091ZM61.0418 29.8622C60.6844 30.5284 61.1669 31.335 61.923 31.335H72.3162C72.9101 31.335 73.3732 30.8203 73.3106 30.2297L71.3715 11.908C71.3534 11.7368 71.209 11.607 71.0369 11.607V11.607C70.913 11.607 70.7991 11.6751 70.7405 11.7843L61.0418 29.8622Z" fill="#20293A"/>
<path d="M90.2198 50.343C89.5834 50.343 89.1089 49.7564 89.2419 49.134L99.3985 1.59801C99.4971 1.13666 99.9047 0.806957 100.376 0.806957H123.328C126.976 0.806957 129.784 1.19096 131.752 1.95896C133.72 2.72696 135.112 3.83096 135.928 5.27096C136.744 6.71096 137.152 8.48696 137.152 10.599C137.152 11.223 137.104 11.919 137.008 12.687C136.96 13.407 136.864 14.175 136.72 14.991C136.576 15.807 136.408 16.647 136.216 17.511C135.832 19.239 135.376 20.823 134.848 22.263C134.368 23.703 133.792 24.975 133.12 26.079C132.448 27.183 131.584 28.167 130.528 29.031C129.658 29.703 128.609 30.2773 127.381 30.754C126.919 30.9337 126.633 31.4095 126.72 31.8984L129.813 49.1667C129.923 49.7797 129.451 50.343 128.829 50.343H118.151C117.652 50.343 117.229 49.9742 117.161 49.4793L114.95 33.4226C114.882 32.9277 114.459 32.559 113.96 32.559C113.891 32.559 113.822 32.559 113.752 32.559C113.368 32.559 112.96 32.559 112.528 32.559H106.208C105.736 32.559 105.329 32.8882 105.23 33.3492L101.753 49.5528C101.654 50.0137 101.247 50.343 100.775 50.343H90.2198ZM107.527 22.4239C107.395 23.0457 107.87 23.631 108.505 23.631H115.12C116.752 23.631 118.048 23.535 119.008 23.343C120.016 23.103 120.808 22.743 121.384 22.263C121.96 21.783 122.416 21.111 122.752 20.247C123.088 19.335 123.4 18.207 123.688 16.863C123.832 16.095 123.952 15.399 124.048 14.775C124.144 14.151 124.192 13.599 124.192 13.119C124.192 12.399 124.024 11.823 123.688 11.391C123.352 10.911 122.728 10.575 121.816 10.383C120.952 10.143 119.728 10.023 118.144 10.023H110.962C110.49 10.023 110.082 10.3537 109.984 10.8159L107.527 22.4239Z" fill="#20293A"/>
<path d="M130.672 50.343C129.915 50.343 129.432 49.5336 129.793 48.8673L155.495 1.33133C155.67 1.00827 156.008 0.806957 156.375 0.806957H171.951C172.459 0.806957 172.887 1.18805 172.944 1.69288L178.403 49.2289C178.471 49.8225 178.007 50.343 177.409 50.343H167.18C166.673 50.343 166.246 49.9634 166.187 49.4598L165.243 41.4341C165.183 40.9305 164.757 40.551 164.249 40.551H147.517C147.151 40.551 146.814 40.7512 146.639 41.073L141.879 49.8209C141.704 50.1427 141.367 50.343 141 50.343H130.672ZM152.105 29.8622C151.747 30.5284 152.23 31.335 152.986 31.335H163.379C163.973 31.335 164.436 30.8203 164.374 30.2297L162.435 11.908C162.416 11.7368 162.272 11.607 162.1 11.607V11.607C161.976 11.607 161.862 11.6751 161.804 11.7843L152.105 29.8622Z" fill="#20293A"/>
<path d="M201.503 50.919C196.799 50.919 192.983 50.511 190.055 49.695C187.175 48.879 185.063 47.511 183.719 45.591C182.423 43.671 181.775 40.983 181.775 37.527C181.775 35.895 181.919 34.047 182.207 31.983C182.543 29.919 182.975 27.639 183.503 25.143C184.367 21.159 185.255 17.751 186.167 14.919C187.127 12.039 188.255 9.63896 189.551 7.71896C190.895 5.79896 192.479 4.31096 194.303 3.25496C196.127 2.15096 198.359 1.38296 200.999 0.950958C203.639 0.470959 206.783 0.230957 210.431 0.230957C212.255 0.230957 214.223 0.302959 216.335 0.44696C218.495 0.590959 220.631 0.782957 222.743 1.02296C224.436 1.21535 225.99 1.42316 227.405 1.64639C227.966 1.73478 228.333 2.27666 228.216 2.83179L226.75 9.76787C226.642 10.2779 226.16 10.6191 225.643 10.5569C224.434 10.4117 223.179 10.2817 221.879 10.167C220.247 10.023 218.711 9.90296 217.271 9.80696C215.879 9.71096 214.703 9.66296 213.743 9.66296C211.103 9.66296 208.895 9.73496 207.119 9.87896C205.343 9.97496 203.879 10.287 202.727 10.815C201.575 11.295 200.591 12.111 199.775 13.263C199.007 14.367 198.311 15.927 197.687 17.943C197.111 19.911 196.511 22.455 195.887 25.575C195.359 27.879 194.951 29.895 194.663 31.623C194.423 33.303 194.303 34.743 194.303 35.943C194.303 37.527 194.591 38.751 195.167 39.615C195.743 40.431 196.655 40.983 197.903 41.271C199.199 41.559 200.879 41.703 202.943 41.703C203.471 41.703 204.095 41.703 204.815 41.703C205.583 41.655 206.327 41.607 207.047 41.559C207.477 41.5051 207.878 41.4664 208.248 41.4428C208.722 41.4125 209.131 41.0811 209.227 40.6161L211.048 31.7441C211.175 31.1239 210.702 30.543 210.069 30.543H204.972C204.336 30.543 203.861 29.9555 203.995 29.3329L205.437 22.6209C205.536 22.1601 205.943 21.831 206.415 21.831H223.235C223.871 21.831 224.345 22.4175 224.213 23.0398L218.708 48.8166C218.623 49.2166 218.302 49.5248 217.899 49.5906C216.395 49.8355 214.745 50.0623 212.951 50.271C210.935 50.463 208.919 50.607 206.903 50.703C204.935 50.847 203.135 50.919 201.503 50.919Z" fill="#20293A"/>
<path d="M225.479 50.343C224.842 50.343 224.368 49.7564 224.501 49.134L234.657 1.59801C234.756 1.13666 235.163 0.806957 235.635 0.806957H269.014C269.65 0.806957 270.125 1.3936 269.992 2.01598L268.403 9.44798C268.305 9.90929 267.897 10.239 267.425 10.239H246.148C245.676 10.239 245.268 10.5693 245.17 11.0313L243.363 19.5433C243.231 20.1653 243.705 20.751 244.341 20.751H261.241C261.877 20.751 262.351 21.3357 262.22 21.9574L260.698 29.1734C260.6 29.6359 260.192 29.967 259.719 29.967H241.968C241.498 29.967 241.091 30.295 240.991 30.7548L239.049 39.6988C238.914 40.322 239.389 40.911 240.027 40.911H260.446C261.082 40.911 261.557 41.4976 261.424 42.12L259.835 49.552C259.737 50.0133 259.329 50.343 258.857 50.343H225.479Z" fill="#20293A"/>
<path d="M296.103 50.465C295.467 50.465 294.993 49.8784 295.125 49.2561L305.282 1.72008C305.381 1.25873 305.788 0.929028 306.26 0.929028H316.814C317.45 0.929028 317.925 1.5164 317.791 2.13905L314.135 19.159C314.001 19.7817 314.476 20.369 315.113 20.369H329.699C330.171 20.369 330.578 20.0399 330.677 19.5791L334.513 1.719C334.612 1.25817 335.02 0.929028 335.491 0.929028H345.975C346.611 0.929028 347.086 1.51562 346.953 2.13797L336.796 49.674C336.698 50.1353 336.29 50.465 335.818 50.465H325.334C324.698 50.465 324.224 49.8793 324.356 49.2572L328.019 32.0168C328.151 31.3948 327.676 30.809 327.04 30.809H312.453C311.981 30.809 311.573 31.1393 311.475 31.6012L307.635 49.6728C307.537 50.1347 307.13 50.465 306.657 50.465H296.103Z" fill="#DC2626"/>
<path d="M343.885 50.465C343.249 50.465 342.774 49.8784 342.907 49.2561L353.064 1.72008C353.162 1.25873 353.57 0.929028 354.042 0.929028H387.42C388.057 0.929028 388.531 1.51567 388.398 2.13805L386.81 9.57005C386.711 10.0314 386.304 10.361 385.832 10.361H364.555C364.082 10.361 363.675 10.6914 363.577 11.1533L361.769 19.6653C361.637 20.2873 362.111 20.873 362.747 20.873H379.648C380.283 20.873 380.757 21.4578 380.626 22.0794L379.104 29.2954C379.007 29.758 378.598 30.089 378.126 30.089H360.375C359.904 30.089 359.498 30.417 359.398 30.8769L357.456 39.8209C357.321 40.4441 357.795 41.033 358.433 41.033H378.852C379.489 41.033 379.963 41.6197 379.83 42.2421L378.242 49.6741C378.143 50.1354 377.736 50.465 377.264 50.465H343.885Z" fill="#DC2626"/>
<path d="M383.581 50.465C382.944 50.465 382.47 49.8784 382.603 49.2561L392.759 1.72008C392.858 1.25873 393.266 0.929028 393.737 0.929028H416.688C420.336 0.929028 423.144 1.31303 425.112 2.08103C427.08 2.84903 428.472 3.95303 429.288 5.39303C430.104 6.83303 430.512 8.60903 430.512 10.721C430.512 11.345 430.464 12.041 430.368 12.809C430.32 13.529 430.224 14.297 430.08 15.113C429.936 15.929 429.768 16.769 429.576 17.633C429.192 19.361 428.736 20.945 428.208 22.385C427.728 23.825 427.152 25.097 426.48 26.201C425.808 27.305 424.944 28.289 423.888 29.153C423.019 29.825 421.97 30.3994 420.742 30.876C420.279 31.0558 419.993 31.5316 420.081 32.0205L423.174 49.2887C423.283 49.9018 422.812 50.465 422.189 50.465H411.512C411.013 50.465 410.59 50.0963 410.521 49.6014L408.311 33.5447C408.243 33.0497 407.82 32.681 407.321 32.681C407.252 32.681 407.183 32.681 407.112 32.681C406.728 32.681 406.32 32.681 405.888 32.681H399.569C399.097 32.681 398.69 33.0103 398.591 33.4712L395.114 49.6748C395.015 50.1358 394.608 50.465 394.136 50.465H383.581ZM400.888 22.546C400.756 23.1678 401.231 23.753 401.866 23.753H408.48C410.112 23.753 411.408 23.657 412.368 23.465C413.376 23.225 414.168 22.865 414.744 22.385C415.32 21.905 415.776 21.233 416.112 20.369C416.448 19.457 416.76 18.329 417.048 16.985C417.192 16.217 417.312 15.521 417.408 14.897C417.504 14.273 417.552 13.721 417.552 13.241C417.552 12.521 417.384 11.945 417.048 11.513C416.712 11.033 416.088 10.697 415.176 10.505C414.312 10.265 413.088 10.145 411.504 10.145H404.323C403.85 10.145 403.442 10.4757 403.345 10.938L400.888 22.546Z" fill="#DC2626"/>
<path d="M448.42 51.041C443.38 51.041 439.42 50.705 436.54 50.033C433.66 49.361 431.62 48.209 430.42 46.577C429.22 44.945 428.62 42.689 428.62 39.809C428.62 38.033 428.836 35.945 429.268 33.545C429.7 31.145 430.228 28.385 430.852 25.265C431.716 21.185 432.508 17.705 433.228 14.825C433.948 11.897 434.836 9.49703 435.892 7.62503C436.948 5.75303 438.316 4.28903 439.996 3.23303C441.724 2.12903 443.932 1.38503 446.62 1.00103C449.356 0.569026 452.74 0.353027 456.772 0.353027C461.812 0.353027 465.748 0.689027 468.58 1.36103C471.412 2.03303 473.428 3.18503 474.628 4.81703C475.828 6.44903 476.428 8.72903 476.428 11.657C476.428 13.481 476.236 15.569 475.852 17.921C475.468 20.273 474.94 23.009 474.268 26.129C473.356 30.257 472.492 33.785 471.676 36.713C470.86 39.593 469.924 41.969 468.868 43.841C467.86 45.713 466.516 47.177 464.836 48.233C463.204 49.289 461.068 50.033 458.428 50.465C455.788 50.849 452.452 51.041 448.42 51.041ZM449.14 41.609C450.868 41.609 452.308 41.561 453.46 41.465C454.612 41.321 455.572 41.009 456.34 40.529C457.108 40.001 457.756 39.185 458.284 38.081C458.812 36.929 459.34 35.369 459.868 33.401C460.396 31.385 460.996 28.817 461.668 25.697C462.292 22.865 462.748 20.489 463.036 18.569C463.372 16.649 463.54 15.113 463.54 13.961C463.54 12.617 463.276 11.657 462.748 11.081C462.268 10.505 461.452 10.145 460.3 10.001C459.196 9.85703 457.732 9.78503 455.908 9.78503C454.132 9.78503 452.668 9.85703 451.516 10.001C450.364 10.097 449.404 10.409 448.636 10.937C447.868 11.417 447.22 12.233 446.692 13.385C446.164 14.489 445.636 16.049 445.108 18.065C444.628 20.033 444.076 22.577 443.452 25.697C443.02 27.617 442.636 29.345 442.3 30.881C442.012 32.369 441.796 33.665 441.652 34.769C441.508 35.825 441.436 36.737 441.436 37.505C441.436 38.801 441.676 39.737 442.156 40.313C442.684 40.889 443.5 41.249 444.604 41.393C445.756 41.537 447.268 41.609 449.14 41.609Z" fill="#DC2626"/>
<path d="M291.953 1.66329C292.052 1.2021 292.459 0.872559 292.931 0.872559H300.004C300.64 0.872559 301.115 1.45938 300.982 2.08182L290.796 49.6789C290.697 50.1401 290.289 50.4696 289.818 50.4696H282.745C282.108 50.4696 281.634 49.8828 281.767 49.2603L291.953 1.66329Z" fill="#DC2626"/>
<path d="M281.785 1.66329C281.884 1.2021 282.291 0.872559 282.763 0.872559H286.836C287.472 0.872559 287.947 1.45938 287.814 2.08182L277.628 49.6789C277.529 50.1401 277.121 50.4696 276.65 50.4696H272.577C271.94 50.4696 271.466 49.8828 271.599 49.2603L281.785 1.66329Z" fill="#20293A"/>
<path d="M273.424 1.66329C273.523 1.2021 273.93 0.872559 274.402 0.872559H276.475C277.111 0.872559 277.586 1.45938 277.453 2.08182L267.267 49.6789C267.168 50.1401 266.761 50.4696 266.289 50.4696H264.216C263.58 50.4696 263.105 49.8828 263.238 49.2603L273.424 1.66329Z" fill="#20293A"/>
</svg>
