<svg width="132" height="59" viewBox="0 0 132 59" fill="none" xmlns="http://www.w3.org/2000/svg">
<path d="M23.728 50.688C19.024 50.688 15.208 50.28 12.28 49.464C9.4 48.648 7.288 47.28 5.944 45.36C4.648 43.44 4 40.752 4 37.296C4 35.664 4.144 33.816 4.432 31.752C4.768 29.688 5.2 27.408 5.728 24.912C6.592 20.928 7.48 17.52 8.392 14.688C9.352 11.808 10.48 9.408 11.776 7.488C13.12 5.568 14.704 4.08 16.528 3.024C18.352 1.92 20.584 1.152 23.224 0.720001C25.864 0.240002 29.008 0 32.656 0C34.48 0 36.448 0.0720024 38.56 0.216003C40.72 0.360002 42.856 0.552 44.968 0.792C46.661 0.984388 48.2152 1.1922 49.6306 1.41543C50.1911 1.50382 50.5584 2.04571 50.4411 2.60083L48.9749 9.53691C48.8671 10.0469 48.3857 10.3881 47.8681 10.3259C46.6591 10.1807 45.4044 10.0507 44.104 9.936C42.472 9.792 40.936 9.672 39.496 9.576C38.104 9.48 36.928 9.432 35.968 9.432C33.328 9.432 31.12 9.504 29.344 9.648C27.568 9.744 26.104 10.056 24.952 10.584C23.8 11.064 22.816 11.88 22 13.032C21.232 14.136 20.536 15.696 19.912 17.712C19.336 19.68 18.736 22.224 18.112 25.344C17.584 27.648 17.176 29.664 16.888 31.392C16.648 33.072 16.528 34.512 16.528 35.712C16.528 37.296 16.816 38.52 17.392 39.384C17.968 40.2 18.88 40.752 20.128 41.04C21.424 41.328 23.104 41.472 25.168 41.472C25.696 41.472 26.32 41.472 27.04 41.472C27.808 41.424 28.552 41.376 29.272 41.328C29.7025 41.2742 30.1029 41.2355 30.4731 41.2118C30.9469 41.1815 31.3565 40.8502 31.452 40.3851L33.2734 31.5131C33.4007 30.8929 32.927 30.312 32.2938 30.312H27.1977C26.5608 30.312 26.0862 29.7246 26.22 29.1019L27.6623 22.3899C27.7613 21.9291 28.1686 21.6 28.6399 21.6H45.4599C46.0963 21.6 46.5708 22.1865 46.4379 22.8088L40.9334 48.5857C40.848 48.9857 40.5278 49.2939 40.1241 49.3596C38.6198 49.6045 36.9705 49.8313 35.176 50.04C33.16 50.232 31.144 50.376 29.128 50.472C27.16 50.616 25.36 50.688 23.728 50.688Z" fill="#20293A"/>
<path d="M76.8454 50.2342C76.209 50.2342 75.7345 49.6477 75.8674 49.0253L86.0241 1.48929C86.1227 1.02795 86.5303 0.698242 87.002 0.698242H97.5555C98.1924 0.698242 98.667 1.28562 98.5332 1.90827L94.8771 18.9282C94.7433 19.5509 95.2179 20.1382 95.8548 20.1382H110.441C110.912 20.1382 111.32 19.8091 111.419 19.3483L115.255 1.48822C115.354 1.02738 115.762 0.698242 116.233 0.698242H126.717C127.353 0.698242 127.828 1.28484 127.695 1.90719L117.538 49.4432C117.44 49.9045 117.032 50.2342 116.56 50.2342H106.076C105.44 50.2342 104.966 49.6485 105.098 49.0264L108.761 31.7861C108.893 31.164 108.418 30.5782 107.782 30.5782H93.195C92.7228 30.5782 92.315 30.9085 92.2168 31.3704L88.3774 49.4421C88.2793 49.9039 87.8715 50.2342 87.3993 50.2342H76.8454Z" fill="#DF2E38"/>
<path d="M72.6949 1.43234C72.7936 0.971139 73.2012 0.641602 73.6728 0.641602H80.7457C81.3822 0.641602 81.8567 1.22843 81.7235 1.85087L71.5376 49.4479C71.4389 49.9091 71.0314 50.2387 70.5597 50.2387H63.4869C62.8504 50.2387 62.3758 49.6518 62.509 49.0294L72.6949 1.43234Z" fill="#DF2E38"/>
<path d="M62.5267 1.43234C62.6254 0.971139 63.0329 0.641602 63.5046 0.641602H67.5774C68.214 0.641602 68.6885 1.22843 68.5553 1.85087L58.3694 49.4479C58.2707 49.9091 57.8632 50.2387 57.3915 50.2387H53.3187C52.6821 50.2387 52.2076 49.6518 52.3408 49.0294L62.5267 1.43234Z" fill="#20293A"/>
<path d="M54.1659 1.43234C54.2646 0.971139 54.6721 0.641602 55.1437 0.641602H57.2166C57.8531 0.641602 58.3277 1.22843 58.1945 1.85087L48.0085 49.4479C47.9098 49.9091 47.5023 50.2387 47.0307 50.2387H44.9578C44.3213 50.2387 43.8468 49.6518 43.98 49.0294L54.1659 1.43234Z" fill="#20293A"/>
</svg>
