<svg width="17" height="17" viewBox="0 0 17 17" fill="none" xmlns="http://www.w3.org/2000/svg">
<path d="M12.25 11.6988H6.474L6.074 10.099H13.05C13.224 10.0991 13.3932 10.0424 13.5321 9.93759C13.671 9.83279 13.7719 9.68558 13.8196 9.51827L14.198 8.19441C13.939 8.34434 13.6529 8.44148 13.3562 8.4802C13.0594 8.51892 12.758 8.49845 12.4692 8.41998L12.4468 8.49998H5.6532L4.5108 4.49959H8.3972C8.2009 3.98437 8.2009 3.41497 8.3972 2.89975H4.066L3.59 1.09594C3.54495 0.925139 3.44463 0.774053 3.30469 0.666249C3.16475 0.558446 2.99306 0.49999 2.8164 0.5H1.05C0.837827 0.5 0.634344 0.584277 0.484315 0.73429C0.334285 0.884304 0.25 1.08777 0.25 1.29992C0.25 1.51207 0.334285 1.71553 0.484315 1.86554C0.634344 2.01556 0.837827 2.09984 1.05 2.09984H2.1996L2.6796 3.90365V3.91885L4.2796 9.51827L4.8764 11.9068C4.48142 12.0821 4.1411 12.3608 3.89136 12.7134C3.64163 13.066 3.49174 13.4795 3.45753 13.9103C3.42332 14.341 3.50606 14.773 3.697 15.1606C3.88795 15.5482 4.18002 15.8771 4.54238 16.1125C4.90474 16.348 5.32395 16.4812 5.75575 16.4981C6.18756 16.5151 6.61593 16.4152 6.99565 16.2089C7.37537 16.0027 7.69236 15.6977 7.91313 15.3263C8.13391 14.9548 8.2503 14.5307 8.25 14.0986C8.24735 13.8255 8.19755 13.5549 8.1028 13.2987H9.9972C9.90245 13.5549 9.85265 13.8255 9.85 14.0986C9.85 14.5732 9.99076 15.0372 10.2545 15.4318C10.5182 15.8265 10.893 16.134 11.3316 16.3157C11.7701 16.4973 12.2527 16.5448 12.7182 16.4522C13.1838 16.3596 13.6114 16.1311 13.9471 15.7955C14.2827 15.4599 14.5113 15.0323 14.6039 14.5668C14.6965 14.1013 14.649 13.6187 14.4673 13.1803C14.2857 12.7418 13.978 12.367 13.5834 12.1033C13.1887 11.8396 12.7247 11.6988 12.25 11.6988ZM6.65 14.0986C6.65 14.2568 6.60308 14.4115 6.51518 14.543C6.42727 14.6746 6.30233 14.7771 6.15615 14.8376C6.00997 14.8982 5.84911 14.914 5.69393 14.8831C5.53874 14.8523 5.3962 14.7761 5.28431 14.6642C5.17243 14.5524 5.09624 14.4098 5.06537 14.2547C5.0345 14.0995 5.05035 13.9386 5.1109 13.7925C5.17145 13.6463 5.27398 13.5214 5.40554 13.4335C5.5371 13.3456 5.69177 13.2987 5.85 13.2987C6.06217 13.2987 6.26566 13.383 6.41569 13.533C6.56571 13.683 6.65 13.8864 6.65 14.0986ZM12.25 14.8985C12.0918 14.8985 11.9371 14.8516 11.8055 14.7637C11.674 14.6758 11.5714 14.5509 11.5109 14.4047C11.4503 14.2585 11.4345 14.0977 11.4654 13.9425C11.4962 13.7874 11.5724 13.6448 11.6843 13.533C11.7962 13.4211 11.9387 13.3449 12.0939 13.3141C12.2491 13.2832 12.41 13.299 12.5561 13.3596C12.7023 13.4201 12.8273 13.5226 12.9152 13.6542C13.0031 13.7857 13.05 13.9404 13.05 14.0986C13.05 14.3107 12.9657 14.5142 12.8157 14.6642C12.6657 14.8142 12.4622 14.8985 12.25 14.8985Z" fill="#6B7280"/>
<path d="M15.45 2.89975H13.85V1.29992C13.85 1.08777 13.7657 0.884304 13.6157 0.73429C13.4657 0.584277 13.2622 0.5 13.05 0.5C12.8378 0.5 12.6343 0.584277 12.4843 0.73429C12.3343 0.884304 12.25 1.08777 12.25 1.29992V2.89975H10.65C10.4378 2.89975 10.2343 2.98403 10.0843 3.13404C9.93429 3.28406 9.85 3.48752 9.85 3.69967C9.85 3.91182 9.93429 4.11528 10.0843 4.2653C10.2343 4.41531 10.4378 4.49959 10.65 4.49959H12.25V6.09942C12.25 6.31157 12.3343 6.51504 12.4843 6.66505C12.6343 6.81506 12.8378 6.89934 13.05 6.89934C13.2622 6.89934 13.4657 6.81506 13.6157 6.66505C13.7657 6.51504 13.85 6.31157 13.85 6.09942V4.49959H15.45C15.6622 4.49959 15.8657 4.41531 16.0157 4.2653C16.1657 4.11528 16.25 3.91182 16.25 3.69967C16.25 3.48752 16.1657 3.28406 16.0157 3.13404C15.8657 2.98403 15.6622 2.89975 15.45 2.89975Z" fill="#6B7280"/>
</svg>
