<svg width="17" height="15" viewBox="0 0 17 15" fill="none" xmlns="http://www.w3.org/2000/svg">
<path d="M15.025 0.833344H2.225C1.3426 0.833344 0.625 1.58084 0.625 2.50001V12.5C0.625 13.4192 1.3426 14.1667 2.225 14.1667H15.025C15.9074 14.1667 16.625 13.4192 16.625 12.5V2.50001C16.625 1.58084 15.9074 0.833344 15.025 0.833344ZM2.225 12.5V2.50001H15.025L15.0258 12.5H2.225Z" fill="#6B7280"/>
<path d="M12.625 4.16668H7.825C7.3826 4.16668 7.025 4.54001 7.025 5.00001C7.025 5.46001 7.3826 5.83334 7.825 5.83334H12.625C13.0674 5.83334 13.425 5.46001 13.425 5.00001C13.425 4.54001 13.0674 4.16668 12.625 4.16668Z" fill="#6B7280"/>
<path d="M12.625 6.66668H7.825C7.3826 6.66668 7.025 7.04001 7.025 7.50001C7.025 7.96001 7.3826 8.33334 7.825 8.33334H12.625C13.0674 8.33334 13.425 7.96001 13.425 7.50001C13.425 7.04001 13.0674 6.66668 12.625 6.66668Z" fill="#6B7280"/>
<path d="M12.625 9.16668H7.825C7.3826 9.16668 7.025 9.54001 7.025 10C7.025 10.46 7.3826 10.8333 7.825 10.8333H12.625C13.0674 10.8333 13.425 10.46 13.425 10C13.425 9.54001 13.0674 9.16668 12.625 9.16668Z" fill="#6B7280"/>
<path d="M4.625 5.83334C5.06683 5.83334 5.425 5.46025 5.425 5.00001C5.425 4.53977 5.06683 4.16668 4.625 4.16668C4.18317 4.16668 3.825 4.53977 3.825 5.00001C3.825 5.46025 4.18317 5.83334 4.625 5.83334Z" fill="#6B7280"/>
<path d="M4.625 8.33334C5.06683 8.33334 5.425 7.96025 5.425 7.50001C5.425 7.03977 5.06683 6.66668 4.625 6.66668C4.18317 6.66668 3.825 7.03977 3.825 7.50001C3.825 7.96025 4.18317 8.33334 4.625 8.33334Z" fill="#6B7280"/>
<path d="M4.625 10.8333C5.06683 10.8333 5.425 10.4602 5.425 10C5.425 9.53977 5.06683 9.16668 4.625 9.16668C4.18317 9.16668 3.825 9.53977 3.825 10C3.825 10.4602 4.18317 10.8333 4.625 10.8333Z" fill="#6B7280"/>
</svg>
