<svg width="16" height="17" viewBox="0 0 16 17" fill="none" xmlns="http://www.w3.org/2000/svg">
<path d="M7.60153 16.5C7.37216 16.5007 7.14493 16.4555 6.93301 16.3671C6.72109 16.2786 6.5287 16.1487 6.36697 15.9848L0.510899 10.0824C0.183771 9.75269 0 9.30556 0 8.83934C0 8.37311 0.183771 7.92598 0.510899 7.59626L7.0414 1.01692C7.36936 0.687606 7.81295 0.501867 8.27595 0.5L13.3826 0.507033C14.0768 0.507033 14.7425 0.784897 15.2334 1.2795C15.7242 1.7741 16 2.44492 16 3.14439V8.03494C16 8.27819 15.9499 8.5188 15.8529 8.74154C15.7559 8.96429 15.6141 9.16433 15.4364 9.32901L8.83521 15.9822C8.67386 16.1465 8.48172 16.2769 8.26993 16.3658C8.05815 16.4547 7.83095 16.5003 7.60153 16.5ZM7.60153 14.7418L14.228 8.06044L14.255 3.14439C14.255 2.91124 14.1631 2.68763 13.9995 2.52276C13.8359 2.3579 13.614 2.26527 13.3826 2.26527L8.27508 2.25824L1.74458 8.83758L7.60153 14.7418Z" fill="#6B7280"/>
<path d="M11.2014 6.21428C11.6832 6.21428 12.0738 5.82069 12.0738 5.33516C12.0738 4.84964 11.6832 4.45604 11.2014 4.45604C10.7195 4.45604 10.3289 4.84964 10.3289 5.33516C10.3289 5.82069 10.7195 6.21428 11.2014 6.21428Z" fill="#6B7280"/>
</svg>
